<svg xmlns="http://www.w3.org/2000/svg" viewBox="0 0 24 24">
    <path d="M21.66 10.515c-.262-1.65-3.043-2.07-4.848-2.168-1.11-1.443-2.847-2.378-4.803-2.378-2.637 0-4.881 1.696-5.713 4.053-1.681.652-4.2 1.917-3.936 3.568.264 1.653 3.052 2.073 4.878 2.169 1.11 1.418 2.834 2.334 4.77 2.334 2.619 0 4.849-1.673 5.694-4.004 1.707-.66 4.22-1.924 3.957-3.576zm-12.987 5.269c1.232-.019 2.552-.137 3.877-.348 1.323-.211 2.614-.509 3.791-.873-.892 1.517-2.527 2.479-4.341 2.479-1.249 0-2.416-.448-3.327-1.257zm3.338-8.815c1.612 0 3.048.761 3.976 1.939l.148.212c.594.851.907 1.846.907 2.88 0 .448-.064.895-.185 1.333-1.337.475-2.87.862-4.464 1.116-1.597.255-3.175.362-4.591.327-.55-.829-.844-1.782-.844-2.775 0-.489.072-.977.215-1.452l.019-.064c.656-2.038 2.567-3.516 4.819-3.516zm-8.662 6.464c-.08-.497.732-1.362 2.659-2.211-.036.265-.06.534-.06.81 0 .961.231 1.868.631 2.676-2.104-.206-3.15-.775-3.23-1.275zm17.324-2.761c.079.499-.737 1.364-2.668 2.213.039-.279.067-.563.067-.853 0-.945-.223-1.836-.61-2.634 2.091.208 3.131.777 3.21 1.274zM12.257 11.859c.562.306 1.146.454 1.675.454.761 0 1.411-.306 1.729-.889.539-.99-.111-2.35-1.481-3.096s-2.865-.555-3.404.435c-.54.99.111 2.351 1.48 3.096zm-.602-2.618c.124-.227.443-.366.855-.366.351 0 .768.1 1.192.33.922.502 1.309 1.32 1.081 1.74-.229.42-1.126.537-2.048.035s-1.309-1.32-1.08-1.74zM21.5 0h-19c-1.379 0-2.5 1.122-2.5 2.5v19c0 1.378 1.122 2.5 2.5 2.5h19c1.379 0 2.5-1.122 2.5-2.5v-19c0-1.379-1.122-2.5-2.5-2.5zm1.5 21.5c0 .827-.673 1.5-1.5 1.5h-19c-.827 0-1.5-.673-1.5-1.5v-19c0-.827.673-1.5 1.5-1.5h19c.827 0 1.5.673 1.5 1.5v19z" fill="#548eaa"/>
</svg>